<?xml version="1.0" encoding="UTF-8"?> <svg xmlns="http://www.w3.org/2000/svg" width="18.286" height="18.589" viewBox="0 0 18.286 18.589"><g id="Grupo_2454" data-name="Grupo 2454" transform="translate(-470.655 -260.596)"><path id="Trazado_1393" data-name="Trazado 1393" d="M485.105,262.324v1.213h-2.123v-1.213H475.7v1.213h-2.123v-1.213h-2.426v3.336h16.376v-3.336Z" transform="translate(0 -0.015)" fill="none" stroke="#004584" stroke-miterlimit="10" stroke-width="1"></path><rect id="Rectángulo_927" data-name="Rectángulo 927" width="2.123" height="2.426" transform="translate(473.581 261.096)" fill="none" stroke="#c9012b" stroke-miterlimit="10" stroke-width="1"></rect><rect id="Rectángulo_928" data-name="Rectángulo 928" width="2.123" height="2.426" transform="translate(482.982 261.096)" fill="none" stroke="#c9012b" stroke-miterlimit="10" stroke-width="1"></rect><rect id="Rectángulo_929" data-name="Rectángulo 929" width="2.123" height="2.123" transform="translate(473.459 268.798)" fill="#004584"></rect><rect id="Rectángulo_933" data-name="Rectángulo 933" width="2.123" height="2.123" transform="translate(473.459 272.257)" fill="#c9012b"></rect><rect id="Rectángulo_930" data-name="Rectángulo 930" width="2.123" height="2.123" transform="translate(476.917 268.798)" fill="#004584"></rect><rect id="Rectángulo_932" data-name="Rectángulo 932" width="2.123" height="2.123" transform="translate(476.917 272.257)" fill="#004584"></rect><rect id="Rectángulo_931" data-name="Rectángulo 931" width="2.123" height="2.123" transform="translate(480.376 268.798)" fill="#004584"></rect><path id="Trazado_1396" data-name="Trazado 1396" d="M486.941,273.124a.3.3,0,0,0-.422.075l-1.7,2.439-1.2-.983a.3.3,0,0,0-.385.468l1.452,1.192a.31.31,0,0,0,.192.069l.042,0a.313.313,0,0,0,.208-.127l1.883-2.707A.3.3,0,0,0,486.941,273.124Z" transform="translate(-0.146 -0.146)" fill="#c9012b"></path><path id="Trazado_1397" data-name="Trazado 1397" d="M484.8,278.439a3.639,3.639,0,1,1,2.729-6.041v-6.7H471.155v13.039h16.376V277.2A3.629,3.629,0,0,1,484.8,278.439Z" transform="translate(0 -0.056)" fill="none" stroke="#004584" stroke-miterlimit="10" stroke-width="1"></path><path id="Trazado_1395" data-name="Trazado 1395" d="M484.926,271.228a3.639,3.639,0,1,1-3.639,3.639A3.639,3.639,0,0,1,484.926,271.228Z" transform="translate(-0.124 -0.124)" fill="none" stroke="#004584" stroke-miterlimit="10" stroke-width="1"></path></g></svg> 