<?xml version="1.0" encoding="UTF-8"?> <svg xmlns="http://www.w3.org/2000/svg" width="18.94" height="18.989" viewBox="0 0 18.94 18.989"><g id="Grupo_2460" data-name="Grupo 2460" transform="translate(-445.512 -300.259)"><g id="Grupo_2460-2" data-name="Grupo 2460" transform="translate(454.672 304.619)"><path id="Trazado_1402" data-name="Trazado 1402" d="M453.21,304.067a.906.906,0,1,1-.905-.907A.905.905,0,0,1,453.21,304.067Z" transform="translate(-451.398 -303.16)" fill="#c9012b"></path><path id="Trazado_1403" data-name="Trazado 1403" d="M454.709,304.067a.906.906,0,1,1-.905-.907A.905.905,0,0,1,454.709,304.067Z" transform="translate(-450.487 -303.16)" fill="#c9012b"></path><path id="Trazado_1404" data-name="Trazado 1404" d="M456.208,304.067a.906.906,0,1,1-.905-.907A.905.905,0,0,1,456.208,304.067Z" transform="translate(-449.576 -303.16)" fill="#c9012b"></path></g><circle id="Elipse_134" data-name="Elipse 134" cx="0.906" cy="0.906" r="0.906" transform="translate(448.659 310.638)" fill="#004584"></circle><path id="Trazado_1405" data-name="Trazado 1405" d="M454.958,308.115c-.135,0-.246,0-.339,0a1.441,1.441,0,0,0-1.341.547c-.043.039-.1.085-.156.133l-1.146,1.037V304.5H447.61a1.589,1.589,0,0,0-1.6,1.6v6.418a1.6,1.6,0,0,0,1.6,1.614h7.4c.135,0,.246,0,.339,0a1.435,1.435,0,0,1,1.339.545c.045.042.1.085.158.133l1.146,1.037v-7.732Z" transform="translate(0 2.275)" fill="none" stroke="#c9012b" stroke-miterlimit="10" stroke-width="1"></path><path id="Trazado_1401" data-name="Trazado 1401" d="M461.7,302.359a1.588,1.588,0,0,0-1.6-1.6h-8.738a1.624,1.624,0,0,0-1.64,1.6V312.1l1.146-1.037c.053-.048.113-.095.156-.133a1.441,1.441,0,0,1,1.341-.547c.093,0,.2,0,.339,0h7.4a1.6,1.6,0,0,0,1.6-1.613v-6.418Z" transform="translate(2.254)" fill="none" stroke="#004584" stroke-miterlimit="10" stroke-width="1"></path></g></svg> 