<?xml version="1.0" encoding="UTF-8"?> <svg xmlns="http://www.w3.org/2000/svg" width="19.592" height="19" viewBox="0 0 19.592 19"><g id="Grupo_2461" data-name="Grupo 2461" transform="translate(-470.078 -260.47)"><path id="Trazado_1406" data-name="Trazado 1406" d="M479.138,265.858a1.352,1.352,0,0,1-1.139-.623.556.556,0,0,0-.41-.249v3h-3.011a.554.554,0,0,1,.247-.392,1.356,1.356,0,1,0-1.462,0,.552.552,0,0,1,.243.391h-3.029v-5.171a1.842,1.842,0,0,1,1.842-1.841h5.17v3.049a.549.549,0,0,0,.408-.245,1.355,1.355,0,1,1,1.141,2.084Z" fill="none" stroke="#004584" stroke-linejoin="round" stroke-width="1"></path><path id="Trazado_1407" data-name="Trazado 1407" d="M484.625,267.982h-3.033a.558.558,0,0,0,.247.426,1.344,1.344,0,0,1,.624,1.218,1.355,1.355,0,1,1-2.085-1.216.557.557,0,0,0,.251-.428h-3.016v-3a.556.556,0,0,1,.41.249,1.356,1.356,0,1,0,0-1.461.549.549,0,0,1-.408.245V260.97h5.172a1.84,1.84,0,0,1,1.84,1.841v5.171Z" transform="translate(-0.023)" fill="none" stroke="#004584" stroke-linejoin="round" stroke-width="1"></path><path id="Trazado_1408" data-name="Trazado 1408" d="M489.2,271.995v5.172a1.841,1.841,0,0,1-1.841,1.84h-5.171v-3.013a.545.545,0,0,0-.408.245,1.354,1.354,0,1,1,0-1.462.547.547,0,0,0,.409.249v-3.031H485.2a.564.564,0,0,1-.25.429,1.354,1.354,0,0,0,.819,2.491,1.355,1.355,0,0,0,.641-2.495.553.553,0,0,1-.247-.425Z" transform="translate(-0.029 -0.037)" fill="#fff" stroke="#c9012b" stroke-linejoin="round" stroke-width="1"></path><path id="Trazado_1409" data-name="Trazado 1409" d="M474.689,271.6a1.355,1.355,0,0,0,2.494.643.542.542,0,0,1,.407-.245v3.013h-5.17a1.843,1.843,0,0,1-1.842-1.843V268h3.029a.552.552,0,0,0-.243-.391,1.355,1.355,0,1,1,1.462,0,.554.554,0,0,0-.247.392h3.011v3.032a.552.552,0,0,1-.409-.249,1.354,1.354,0,0,0-2.492.819Z" transform="translate(0 -0.014)" fill="none" stroke="#004584" stroke-linejoin="round" stroke-width="1"></path></g></svg> 