<?xml version="1.0" encoding="UTF-8"?> <svg xmlns="http://www.w3.org/2000/svg" width="18.555" height="21.431" viewBox="0 0 18.555 21.431"><g id="Grupo_2453" data-name="Grupo 2453" transform="translate(-465.056 -252.96)"><path id="Trazado_1391" data-name="Trazado 1391" d="M485.422,272.949a7.241,7.241,0,0,1-5.718,2.79q-.152,0-.3-.007l2.855,5.379,1.908-3.469,3.942.364Z" transform="translate(-5.371 -7.772)" fill="none" stroke="#c9012b" stroke-miterlimit="10" stroke-width="1"></path><path id="Trazado_1392" data-name="Trazado 1392" d="M474.333,275.739a7.24,7.24,0,0,1-5.718-2.79l-2.684,5.056,3.942-.364,1.908,3.469,2.855-5.379C474.535,275.737,474.434,275.739,474.333,275.739Z" transform="translate(0 -7.772)" fill="none" stroke="#c9012b" stroke-miterlimit="10" stroke-width="1"></path><path id="Trazado_1388" data-name="Trazado 1388" d="M475.094,253.46a7.254,7.254,0,1,1-7.254,7.254A7.254,7.254,0,0,1,475.094,253.46Z" transform="translate(-0.761 0)" fill="none" stroke="#004584" stroke-miterlimit="10" stroke-width="1"></path><path id="Trazado_1389" data-name="Trazado 1389" d="M476.471,267.269a5.178,5.178,0,1,1,5.178-5.178A5.184,5.184,0,0,1,476.471,267.269Z" transform="translate(-2.138 -1.377)" fill="none" stroke="#004584" stroke-miterlimit="10" stroke-width="1"></path><path id="Trazado_1390" data-name="Trazado 1390" d="M478.977,261.209H477.1l-.58-1.787a.25.25,0,0,0-.474,0l-.58,1.787h-1.878a.249.249,0,0,0-.147.451l1.52,1.1-.58,1.786a.249.249,0,0,0,.384.278l1.519-1.1,1.52,1.1a.249.249,0,0,0,.384-.278l-.581-1.786,1.52-1.1A.25.25,0,0,0,478.977,261.209Z" transform="translate(-1.949 -1.35)" fill="#004584"></path></g></svg> 