<?xml version="1.0" encoding="UTF-8"?> <svg xmlns="http://www.w3.org/2000/svg" width="20.011" height="18.544" viewBox="0 0 20.011 18.544"><g id="Grupo_2459" data-name="Grupo 2459" transform="translate(-469.405 -260.88)"><path id="Trazado_1398" data-name="Trazado 1398" d="M481.354,264.505a1.942,1.942,0,1,0-1.887.006,3.507,3.507,0,0,0-2.51,3.308h6.874A3.478,3.478,0,0,0,481.354,264.505Z" transform="translate(0.09)" fill="#004584"></path><g id="Grupo_2456" data-name="Grupo 2456" transform="translate(469.908 271.146)"><g id="Grupo_2455" data-name="Grupo 2455" transform="translate(0 0)"><path id="Trazado_1399" data-name="Trazado 1399" d="M475.969,277.146l-2.669-5.352a1.047,1.047,0,0,0-1.4-.471l-.7.346a.524.524,0,0,0-.235.7l3.142,6.286a.524.524,0,0,0,.7.235l.688-.341A1.048,1.048,0,0,0,475.969,277.146Z" transform="translate(-470.908 -271.214)" fill="none" stroke="#c9012b" stroke-miterlimit="10" stroke-width="1"></path></g></g><g id="Grupo_2458" data-name="Grupo 2458" transform="translate(474.145 269.259)"><g id="Grupo_2457" data-name="Grupo 2457" transform="translate(0 0)"><path id="Trazado_1400" data-name="Trazado 1400" d="M488.378,269.706a1.044,1.044,0,0,0-1.383.136l-2.864,3.52a1.264,1.264,0,0,1-.775.335h-2.441a.524.524,0,1,1,0-1.047h2.1a1.048,1.048,0,1,0,0-2.1h-2.745c-.261,0-.391-.166-.6-.346a3.644,3.644,0,0,0-3.252-.8,3.813,3.813,0,0,0-1.608.8l-.015-.013-.758.667,2.977,5.971h6a3.156,3.156,0,0,0,2.514-1.258l3.073-4.4A1.055,1.055,0,0,0,488.378,269.706Z" transform="translate(-474.036 -269.314)" fill="none" stroke="#004584" stroke-miterlimit="10" stroke-width="1"></path></g></g></g></svg> 