<?xml version="1.0" encoding="utf-8"?>
<!-- Generator: Adobe Illustrator 21.1.0, SVG Export Plug-In . SVG Version: 6.00 Build 0)  -->
<svg version="1.1" id="Layer_1" xmlns="http://www.w3.org/2000/svg" xmlns:xlink="http://www.w3.org/1999/xlink" x="0px" y="0px"
	 viewBox="0 0 80 52.9" style="enable-background:new 0 0 80 52.9;" xml:space="preserve">
<style type="text/css">
	.st0{fill:#CF0A2C;}
	.st1{fill:#002D73;}
	.st2{fill:#082767;}
</style>
<g>
	<g>
		<g>
			<g>
				<path id="SVGID_1_" class="st0" d="M46.4,12.8C46,12.8,22.9,13,22.9,13s1.4,2.1,6.6,2.1c5.1,0,12.7-0.1,12.7-0.1
					s-1.3,1.4-2.5,2.6c-0.9,0.9-2.8,3.2-2.8,5.8c0,2.2,0.8,3.5,2,4.7c0.9,0.9,3.3,2.2,5.7,2.1C42.9,30,41.3,29,40.3,28
					c-1.4-1.4-1.6-3.7-1-5.5c0.6-1.6,1.8-3,2.6-3.8c1.4-1.5,2-2,3.4-3.5c0.5-0.5,2-2,2-2.2c0-0.2-0.3-0.3-0.5-0.3
					C46.6,12.8,46.5,12.8,46.4,12.8 M50.7,8.1c-3,0-32.6,0.4-32.6,0.4s1.6,2,6.5,2c7.2,0,21-0.3,25.5-0.3c1.5,0,2.1,0.9,1.3,2
					c-0.3,0.4-4.9,5.1-8.5,8.9c-1.6,1.6-1.7,3-1.6,3.9c0,1,0.7,2,1.3,2.6c1.2,1.1,3.5,1.7,4.1,1.1c-2,0-3.3-1.9-3.3-3.5
					c0-1.5,0.8-2.2,1.3-2.6c0.8-0.8,7.8-7.9,8.5-8.8c0.6-0.6,1.4-1.5,1.4-3C54.5,9.4,52.9,8.1,50.7,8.1L50.7,8.1 M50.1,3.6
					C47,3.6,13.5,3.9,13.5,3.9s1.6,2.1,6.5,2.1c7.4,0,22.4-0.3,30.1-0.3c2.8-0.1,4.3,0.5,5.9,2.1c1.9,1.8,1.9,4.3-0.8,7.1
					c-2.3,2.3-6.4,6.6-7.8,7.9c-1.3,1.3-1.8,1.6-1.8,2.6c0,0.9,1.4,2,2.6,0.8c-0.8-0.3-0.6-0.8-0.3-1.2c3.9-4,6.7-6.8,8.4-8.6
					c4-4.1,3.9-7.3,1-10.1c-2.1-2-4.2-2.7-7.2-2.7C50.3,3.6,50.2,3.6,50.1,3.6"/>
			</g>
		</g>
		<path class="st0" d="M50.3,26.5c1.2,0,2.1,0.1,2.9,0.1c1.5,0.1,2.7,0.6,2.8,1.1c0.1,0.1,0,0.3,0,0.3s-1.6,0-3.8,0.2
			c-0.8,0.1-2.3,0.2-3,0.6c-0.1-0.3,0.1-0.6,1-1C50.8,27.6,51.2,26.9,50.3,26.5"/>
		<g>
			<g>
				<path id="SVGID_3_" class="st1" d="M47,34.5c0,0-7.5,7.9-9.1,9.6c-3.8,3.8-7.1,4.4-9.7,1.9c-3.6-3.5-0.6-7.6,2.2-10.5
					c0.7-0.7,1.2-1.2,1.2-1.4c0-0.3-0.5-0.3-0.7-0.3c-0.4,0-23.5,0.3-23.5,0.3s1.7,2.1,6,2.1c4.8,0,12.9-0.1,13.3-0.1
					c-0.9,1-5.5,6.4-0.2,11.7c3.8,3.7,8.6,2.5,14.2-3.3c2.3-2.5,10.7-11.3,11.7-12.3C49.3,32.2,47,34.5,47,34.5 M65,24.8
					c-0.9,0-1.6,0.6-1.8,0.8c-0.7,0.7-1.1,0.7-1.9,0.7c-0.4,0-0.8-0.4-1.1-0.8c-0.3-0.4-0.6-0.8-1-0.8c-3.7,0.1-9.8,0.1-9.8,0.1
					s0.1,0.6,1.2,0.6c1.9,0,3.9,0.1,5.2,0.6c1.3,0.5,1.7,1.3,1.7,2.1c0,0.3,0,0.5,0,0.6c-5.3,0.1-11.5,0.4-16.1,5.2
					c-1.8,1.8-4.3,4.4-8.2,8.4c-0.9,1-2,0.3-2-0.6c0-0.6,1.4-2.1,1.9-2.5c0.8-0.8,3.7-3.7,4.5-4.5c0.6-0.6,1.4-1.5,1.4-3
					c0-1.4-1.7-2.7-3.8-2.7c-3,0.1-32.5,0.4-32.5,0.4s1.4,2,5.6,2c6.7,0,21.6-0.3,26.3-0.3c1.4,0,2.1,0.9,1.3,2
					c-0.3,0.4-2.5,2.7-3.9,4.1c-1.3,1.4-2.8,2.7-2.8,4.7c0,2.1,1.3,3.3,2.8,3.3c1.4,0,2.3-0.5,3.7-1.8c1.3-1.4,5.5-5.6,7.8-7.9
					c3.5-3.7,8.1-4.5,13.7-4.5c4.5-0.1,6-2.1,7.9-4c0.4-0.4,1.4-0.9,1.9-1.1c1-0.4,5.1-0.5,7.4-0.5c1.4,0,1.4-0.6,1.4-0.6
					S66.3,24.8,65,24.8 M61.6,23.4c-0.6,0-1.1,0.5-1.1,1.2c0,0.6,0.5,1.1,1.2,1.1c0.6,0,1.1-0.5,1.1-1.2
					C62.8,23.9,62.2,23.4,61.6,23.4L61.6,23.4"/>
			</g>
		</g>
	</g>
	<g>
		<g>
			<g>
				<path id="SVGID_7_" class="st2" d="M47,34.5c0,0-7.5,7.9-9.1,9.6c-3.8,3.8-7.1,4.4-9.7,1.9c-3.6-3.5-0.6-7.6,2.2-10.5
					c0.7-0.7,1.2-1.2,1.2-1.4c0-0.3-0.5-0.3-0.7-0.3c-0.4,0-23.5,0.3-23.5,0.3s1.7,2.1,6,2.1c4.8,0,12.9-0.1,13.3-0.1
					c-0.9,1-5.5,6.4-0.2,11.7c3.8,3.7,8.6,2.5,14.2-3.3c2.3-2.5,10.7-11.3,11.7-12.3C49.3,32.2,47,34.5,47,34.5 M65,24.8
					c-0.9,0-1.6,0.6-1.8,0.8c-0.7,0.7-1.1,0.7-1.9,0.7c-0.4,0-0.8-0.4-1.1-0.8c-0.3-0.4-0.6-0.8-1-0.8c-3.7,0.1-9.8,0.1-9.8,0.1
					s0.1,0.6,1.2,0.6c1.9,0,3.9,0.1,5.2,0.6c1.3,0.5,1.7,1.3,1.7,2.1c0,0.3,0,0.5,0,0.6c-5.3,0.1-11.5,0.4-16.1,5.2
					c-1.8,1.8-4.3,4.4-8.2,8.4c-0.9,1-2,0.3-2-0.6c0-0.6,1.4-2.1,1.9-2.5c0.8-0.8,3.7-3.7,4.5-4.5c0.6-0.6,1.4-1.5,1.4-3
					c0-1.4-1.7-2.7-3.8-2.7c-3,0.1-32.5,0.4-32.5,0.4s1.4,2,5.6,2c6.7,0,21.6-0.3,26.3-0.3c1.4,0,2.1,0.9,1.3,2
					c-0.3,0.4-2.5,2.7-3.9,4.1c-1.3,1.4-2.8,2.7-2.8,4.7c0,2.1,1.3,3.3,2.8,3.3c1.4,0,2.3-0.5,3.7-1.8c1.3-1.4,5.5-5.6,7.8-7.9
					c3.5-3.7,8.1-4.5,13.7-4.5c4.5-0.1,6-2.1,7.9-4c0.4-0.4,1.4-0.9,1.9-1.1c1-0.4,5.1-0.5,7.4-0.5c1.4,0,1.4-0.6,1.4-0.6
					S66.3,24.8,65,24.8 M61.6,23.4c-0.6,0-1.1,0.5-1.1,1.2c0,0.6,0.5,1.1,1.2,1.1c0.6,0,1.1-0.5,1.1-1.2
					C62.8,23.9,62.2,23.4,61.6,23.4L61.6,23.4"/>
			</g>
		</g>
	</g>
</g>
</svg>
